<?xml version="1.0" standalone="no"?>
<!DOCTYPE svg PUBLIC "-//W3C//DTD SVG 20010904//EN"
 "http://www.w3.org/TR/2001/REC-SVG-20010904/DTD/svg10.dtd">
<svg version="1.0" xmlns="http://www.w3.org/2000/svg"
 width="400.000000pt" height="400.000000pt" viewBox="0 0 400.000000 400.000000"
 preserveAspectRatio="xMidYMid meet">
<metadata>
Created by potrace 1.11, written by Peter Selinger 2001-2013
</metadata>
<g transform="translate(0.000000,400.000000) scale(0.100000,-0.100000)"
fill="#000000" stroke="none">
<path d="M1578 3924 c-74 -131 -539 -825 -549 -819 -5 4 -9 13 -9 22 0 22 -69
184 -86 203 -12 12 -14 10 -15 -15 0 -17 -2 -50 -4 -75 -2 -25 -7 -79 -10
-120 -8 -93 -30 -219 -50 -287 -14 -47 -20 -54 -73 -83 -146 -82 -397 -262
-437 -314 -41 -54 -80 -154 -190 -492 -59 -181 -118 -360 -131 -397 -13 -38
-24 -91 -24 -118 l0 -50 58 45 c68 53 223 201 245 235 l16 23 5 -33 c3 -19 13
-79 22 -134 21 -128 62 -297 112 -456 22 -69 48 -164 57 -210 10 -46 22 -88
26 -93 17 -19 119 261 119 325 l0 31 27 -32 c47 -56 131 -207 138 -248 8 -51
56 -148 92 -188 43 -48 149 -122 236 -165 65 -31 149 -62 316 -115 9 -3 -2
-21 -36 -57 -27 -29 -67 -78 -87 -109 -34 -50 -37 -61 -28 -86 10 -29 9 -30
-61 -71 l-72 -41 313 0 313 0 -27 50 c-26 47 -26 52 -14 90 12 37 12 44 -10
82 l-23 41 33 30 c23 20 35 25 40 17 11 -17 100 3 177 39 l61 29 7 -25 c3 -14
5 -27 3 -28 -2 -1 -37 -18 -80 -38 -94 -43 -111 -65 -97 -127 11 -45 8 -109
-6 -142 -7 -17 34 -18 779 -18 432 0 786 1 786 3 0 11 -48 123 -79 185 -42 84
-112 168 -165 201 -90 56 -311 79 -386 41 -22 -11 -42 -20 -45 -20 -11 0 -4
29 10 44 28 28 38 72 23 103 -10 22 -25 30 -75 43 l-61 15 16 30 c9 17 32 70
53 118 l36 89 47 -86 c26 -47 51 -86 56 -86 6 0 7 74 4 188 l-6 187 20 -30
c11 -16 32 -49 46 -72 14 -24 30 -43 35 -43 5 0 12 40 16 90 4 49 10 90 14 90
3 0 17 -14 30 -30 33 -43 47 -39 43 13 -5 48 -16 54 104 -51 39 -34 76 -62 82
-62 7 0 12 17 12 43 0 70 -21 257 -35 322 -8 32 -12 61 -10 63 2 2 23 -9 47
-26 50 -35 228 -150 275 -177 18 -10 35 -16 39 -13 3 4 -5 42 -19 85 -15 43
-44 146 -66 228 -47 174 -89 303 -120 362 -11 23 -21 44 -21 47 0 2 35 -7 78
-21 59 -19 261 -53 314 -53 24 0 0 30 -55 70 -34 25 -147 128 -252 230 -104
102 -219 210 -254 241 l-63 55 35 1 c98 3 337 37 337 48 0 7 -36 23 -80 36
-44 12 -80 26 -80 30 0 3 19 11 43 17 52 14 233 101 295 144 63 43 132 100
132 110 0 4 -45 8 -99 8 -176 0 -415 33 -741 101 -80 17 -191 40 -247 51 -57
11 -100 24 -97 29 3 5 24 19 47 30 56 29 178 113 206 143 35 37 18 47 -40 25
l-52 -20 60 65 c99 108 188 310 208 470 9 67 -3 72 -68 28 -175 -119 -386
-210 -937 -402 -202 -70 -329 -117 -391 -144 l-36 -15 19 97 c20 99 36 454 30
645 -3 85 -3 87 -27 87 -20 0 -32 -14 -67 -76z m-611 -770 c1 -18 -2 -23 -9
-16 -6 6 -8 18 -5 26 9 22 12 20 14 -10z m-10 -64 c-6 -16 -13 -27 -15 -25 -7
7 8 55 17 55 5 0 4 -13 -2 -30z m-34 -175 c-3 -9 -8 -14 -10 -11 -3 3 -2 9 2
15 9 16 15 13 8 -4z m-16 -47 c-3 -8 -6 -5 -6 6 -1 11 2 17 5 13 3 -3 4 -12 1
-19z m15 -108 c-18 -17 -52 -60 -76 -98 -25 -37 -50 -74 -58 -82 -16 -19 -84
-167 -110 -240 -27 -77 -45 -162 -53 -252 -8 -88 -25 -96 -25 -12 0 80 58 283
117 411 38 82 115 194 173 251 29 29 55 52 59 52 3 0 -9 -14 -27 -30z m-495
-320 c-15 -12 -26 -24 -25 -28 1 -4 -14 -41 -33 -82 -20 -41 -44 -96 -55 -122
-10 -27 -23 -48 -27 -48 -5 0 -5 -5 -2 -10 3 -6 -1 -17 -9 -26 -9 -8 -16 -12
-16 -7 0 12 24 75 37 99 7 12 10 24 7 27 -3 3 3 23 13 44 11 21 28 56 39 78
19 39 83 109 92 100 3 -3 -7 -14 -21 -25z m1458 -331 c4 7 14 4 27 -8 12 -12
17 -25 13 -32 -5 -7 -4 -10 2 -6 6 4 18 -2 28 -13 16 -18 8 -30 -8 -14 -3 4
-39 6 -79 6 -102 0 -103 -1 -92 -11 5 -6 45 -11 89 -12 81 -2 145 -19 145 -39
0 -6 -4 -8 -10 -5 -5 3 -41 6 -80 7 -115 1 -160 25 -172 93 -3 17 3 20 42 23
25 2 49 7 54 12 6 6 14 5 22 -1 8 -7 14 -7 19 0z m-1628 -34 c-15 -16 -19 -13
-11 9 3 9 10 13 15 10 5 -3 3 -11 -4 -19z m1870 -245 c167 -227 238 -368 271
-534 14 -71 17 -77 24 -50 14 48 20 225 10 292 -5 34 -7 62 -4 62 3 0 24 -16
48 -35 l42 -35 -15 -40 c-19 -48 -7 -88 36 -113 44 -26 45 -21 6 18 -38 39
-40 47 -24 93 l11 31 61 -52 c34 -29 80 -66 102 -82 22 -17 53 -42 69 -56 l29
-27 -28 -48 c-40 -68 -110 -133 -185 -171 -101 -53 -142 -38 -117 42 9 29 22
45 55 64 62 37 142 100 142 112 0 5 -12 -1 -27 -15 -14 -14 -49 -37 -76 -52
l-50 -27 7 34 c3 19 14 40 24 47 9 7 26 20 37 28 19 14 19 14 -5 8 -53 -13
-70 -32 -70 -76 0 -30 -7 -49 -24 -67 -52 -57 -52 -142 2 -149 12 -2 22 -9 22
-15 0 -16 -28 -166 -36 -197 -7 -23 -6 -24 10 -11 21 18 24 14 27 -36 2 -31
-4 -52 -24 -82 -41 -62 -58 -68 -192 -74 -117 -5 -220 -28 -248 -56 -13 -13
-14 -59 -3 -122 l8 -45 -64 -27 c-34 -15 -82 -33 -104 -41 -41 -14 -41 -14
-41 10 0 18 9 29 34 40 51 25 34 26 -33 3 -122 -43 -189 -38 -419 33 -173 53
-235 80 -331 144 -147 97 -199 167 -229 310 -8 38 -12 70 -10 73 3 2 22 -7 43
-21 20 -14 56 -35 78 -46 l41 -21 -59 117 c-32 64 -54 118 -50 120 5 1 -2 25
-16 53 -30 61 -34 145 -8 184 27 41 48 29 52 -30 5 -59 23 -142 36 -168 7 -14
16 -17 34 -13 20 5 24 3 24 -17 0 -13 -6 -29 -12 -35 -10 -10 -5 -20 23 -47
36 -33 36 -34 47 -12 29 59 15 216 -23 277 -48 75 -114 116 -166 105 -44 -10
-53 -26 -58 -105 l-2 -25 -13 25 c-10 19 -46 163 -46 186 0 2 17 8 38 13 48
14 158 14 183 0 19 -10 19 -9 9 10 -17 32 -68 54 -112 48 -21 -3 -38 -4 -38
-2 0 2 22 17 49 34 l50 30 170 -175 170 -176 -5 54 c-9 78 -42 185 -76 248
l-31 55 62 -60 c33 -33 61 -56 61 -53 0 7 -36 70 -82 146 -19 30 -12 27 98
-44 66 -42 138 -92 161 -111 47 -37 63 -36 63 5 0 50 19 96 57 134 20 21 40
38 43 38 3 0 4 -36 2 -80 -2 -44 2 -104 8 -135 l11 -55 40 6 c47 8 51 -7 15
-45 l-25 -26 35 -38 c38 -41 54 -43 129 -15 45 17 142 85 142 100 0 7 5 31 11
53 9 32 8 59 -2 120 -8 44 -13 81 -11 83 10 11 47 -66 52 -109 6 -49 7 -50 19
-28 23 41 17 92 -16 137 -16 23 -39 46 -50 52 -11 6 -18 15 -16 19 10 15 -78
34 -168 37 l-90 3 -23 57 c-13 32 -23 59 -23 60 0 7 137 47 202 59 l73 14 -89
-6 c-50 -3 -114 -11 -143 -18 -30 -7 -56 -9 -59 -4 -3 5 2 12 11 15 33 13 193
32 277 33 l87 1 88 -120z m-607 5 c10 -12 10 -15 -4 -15 -9 0 -16 7 -16 15 0
8 2 15 4 15 2 0 9 -7 16 -15z m111 -76 l61 -30 -38 -20 c-22 -11 -54 -37 -71
-57 -18 -20 -33 -32 -33 -27 -2 32 -12 94 -20 117 -7 22 -5 30 8 38 24 14 26
13 93 -21z m834 -1128 c-3 -6 -11 -11 -17 -11 -6 0 -6 6 2 15 14 17 26 13 15
-4z"/>
<path d="M1120 1041 c-15 -29 -12 -77 6 -91 13 -12 14 -10 4 12 -8 18 -9 36
-2 61 11 41 8 47 -8 18z"/>
<path d="M1684 879 c-22 -36 -264 -119 -346 -119 -21 0 -38 -4 -38 -10 0 -44
384 74 403 124 7 18 -8 22 -19 5z"/>
<path d="M3910 2661 c8 -6 23 -11 33 -11 10 0 15 -4 12 -10 -8 -12 15 -13 33
-1 10 6 3 10 -23 15 -20 4 -44 10 -53 13 -15 4 -15 3 -2 -6z"/>
</g>
</svg>
